<?xml version="1.0" standalone="no"?>
<!DOCTYPE svg PUBLIC "-//W3C//DTD SVG 20010904//EN"
 "http://www.w3.org/TR/2001/REC-SVG-20010904/DTD/svg10.dtd">
<svg version="1.0" xmlns="http://www.w3.org/2000/svg"
 width="700.000000pt" height="700.000000pt" viewBox="0 0 700.000000 700.000000"
 preserveAspectRatio="xMidYMid meet">
<metadata>
Created by potrace 1.14, written by Peter Selinger 2001-2017
</metadata>
<g transform="translate(0.000000,700.000000) scale(0.100000,-0.100000)"
fill="#000000" stroke="none">
<path d="M3225 6994 c-826 -68 -1579 -409 -2169 -984 -607 -591 -970 -1354
-1047 -2199 -17 -194 -7 -606 20 -781 64 -414 153 -703 326 -1055 292 -595
726 -1078 1282 -1427 1161 -727 2634 -708 3778 47 810 535 1360 1378 1520
2329 35 212 46 344 46 590 0 313 -27 536 -97 826 -119 485 -328 913 -650 1330
-110 142 -412 447 -559 564 -504 402 -1093 652 -1745 742 -111 15 -590 27
-705 18z m945 -1954 l0 -380 -228 0 -227 0 -688 -688 -687 -687 0 -228 0 -227
-380 0 -380 0 0 375 0 375 227 0 228 0 692 692 693 693 0 227 0 228 375 0 375
0 0 -380z m1230 0 l0 -380 -230 0 -230 0 -1298 -1301 -1297 -1301 -3 -229 -2
-229 -380 0 -380 0 0 380 0 380 233 0 233 0 1297 1298 1297 1298 0 232 0 232
380 0 380 0 0 -380z m0 -1225 l0 -375 -227 0 -228 0 -692 -692 -693 -693 0
-227 0 -228 -375 0 -375 0 0 380 0 380 227 0 228 0 687 687 688 688 0 227 0
228 380 0 380 0 0 -375z"/>
</g>
</svg>
